<svg xmlns="http://www.w3.org/2000/svg" viewBox="0 0 236.58 62.38"><defs><style>.cls-1{opacity:0.2;}</style></defs><g id="Layer_2" data-name="Layer 2"><g id="Layer_1-2" data-name="Layer 1"><g class="cls-1"><path d="M29.7,24.88a8.41,8.41,0,0,0-6.33,2.86l-.2-2.46-.71-.4-8.41,2.86v1.69l2.63.38c.09,1.72.13,2.62.13,5v11.6c0,2.1,0,4.42-.08,7.11l-2.38.5v2h12V54l-2.77-.64c0-2.64-.07-4.93-.07-7V44.61a6.91,6.91,0,0,0,5.41,2.32c4.84,0,9.17-4.2,9.17-11.12C38.1,28.67,34.37,24.88,29.7,24.88ZM26.46,43.3a4.15,4.15,0,0,1-2.81-1.08V29.84a4.89,4.89,0,0,1,2.94-1.23c2.52,0,4.24,2.23,4.24,7.31S29,43.3,26.46,43.3Z"/><path d="M50.2,34.33c-6.62,1.91-8.31,4.06-8.31,7.12,0,3.53,2.31,5.48,5.62,5.48,2.93,0,4.3-1.18,6.18-3.15.61,2,2.15,3.12,4.67,3.12s4.13-.9,5.16-3.24l-1.13-.76c-.51.71-.86.94-1.31.94-.61,0-1-.41-1-1.25V33c0-5.75-2.17-8.08-7.68-8.08-6.18,0-9.63,2.42-9.86,6A2.69,2.69,0,0,0,45.46,33c1.65,0,3-1.15,3.15-4l.19-1.86A9.92,9.92,0,0,1,50,27.09c2.74,0,3.48,1.13,3.48,4.93v1.4C52.25,33.75,51.07,34.07,50.2,34.33Zm.61,9.13c-1.45,0-2.58-1-2.58-3.14A4.62,4.62,0,0,1,51.44,36a16.64,16.64,0,0,1,2-.73v7A4.52,4.52,0,0,1,50.81,43.46Z"/><path d="M68.4,43.79l-2.37.5v2H77.77v-2l-2.37-.47c-.05-2.18-.08-4.37-.08-6.55V21.55l.17-6-.69-.43-9,1.93v1.81l2.66.43v18C68.48,39.44,68.45,41.62,68.4,43.79Z"/><path d="M83.9,43.79l-2.31.5v2H93v-2l-2.14-.45c0-2.1-.06-4.75-.06-6.57v-5.7l.12-6.23-.73-.46-9,2.86v1.69l2.65.38c.09,1.72.13,3.05.13,5.41v2.05C84,39.07,83.94,41.69,83.9,43.79Z"/><path d="M90.93,18.29a3.65,3.65,0,1,0-3.64,3.42A3.46,3.46,0,0,0,90.93,18.29Z"/><path d="M124.5,43.79l-2.07.5v2h11v-2l-2.15-.46c0-2.09-.06-4.69-.06-6.56V32.48c0-5.11-1.92-7.6-6.25-7.6-2.45,0-4.54.92-6.93,3.83-.84-2.56-2.75-3.83-5.67-3.83-2.58,0-4.67,1.21-6.72,3.63l-.26-3.17-.74-.46-8.47,2.86v1.69l2.63.38c.12,1.72.13,2.62.13,5v2.48c0,1.8,0,4.42-.06,6.52l-2.32.5v2h11.3v-2l-2-.43c0-2.11-.06-4.77-.06-6.59V30.6A5.85,5.85,0,0,1,109.38,29c1.89,0,2.49,1.1,2.49,4.1v4.13c0,1.86,0,4.43-.06,6.51l-2.23.51v2h11.08v-2l-2-.44c0-2.09-.06-4.7-.06-6.58v-5a14.69,14.69,0,0,0-.09-1.68A5.68,5.68,0,0,1,122.12,29c1.76,0,2.44.84,2.44,4.07v4.16C124.56,39.13,124.54,41.71,124.5,43.79Z"/><path d="M157,34c0-5.19-3.21-9.07-8.87-9.07s-11.06,3.89-11.06,11c0,6.93,4.45,11,10.7,11,4.15,0,7.24-1.65,9-5l-1.48-1.39a6.9,6.9,0,0,1-5.21,2.31c-3,0-5.44-2.06-5.76-6.58H156.8A9.37,9.37,0,0,0,157,34Zm-9,0h-3.7c.21-5.21,1.73-6.9,3.39-6.9s2.9,1.4,2.9,4.22C150.64,33.22,150.11,34,148.05,34Z"/><path d="M170.47,24.88c-4.85,0-9.45,4.23-9.45,11.22s3.7,10.83,8.57,10.83a7.68,7.68,0,0,0,6-2.64l.36,2.48,8.39-.49v-2l-2.1-.47V21.55l.17-6-.7-.43L172.65,17v1.81l3,.43v7.89A6.4,6.4,0,0,0,170.47,24.88ZM168.29,36c0-5.07,2-7.5,4.58-7.5a4.06,4.06,0,0,1,2.54.91v12.8a4.16,4.16,0,0,1-2.65,1C170.12,43.21,168.29,40.73,168.29,36Z"/><path d="M190.42,43.79l-2.31.5v2H199.5v-2l-2.14-.45c0-2.1-.06-4.75-.06-6.57v-5.7l.12-6.23-.73-.46-9,2.86v1.69l2.65.38c.09,1.72.13,3.05.13,5.41v2.05C190.48,39.07,190.46,41.69,190.42,43.79Z"/><path d="M197.45,18.29a3.65,3.65,0,1,0-3.64,3.42A3.45,3.45,0,0,0,197.45,18.29Z"/><path d="M211.56,34.33c-6.61,1.91-8.3,4.06-8.3,7.12,0,3.53,2.3,5.48,5.62,5.48,2.93,0,4.29-1.18,6.18-3.15.61,2,2.15,3.12,4.66,3.12s4.14-.9,5.17-3.24l-1.14-.76c-.5.71-.85.94-1.3.94-.61,0-1-.41-1-1.25V33c0-5.75-2.17-8.08-7.68-8.08-6.18,0-9.64,2.42-9.86,6A2.69,2.69,0,0,0,206.83,33c1.65,0,3-1.15,3.15-4l.19-1.86a9.92,9.92,0,0,1,1.18-.07c2.74,0,3.48,1.13,3.48,4.93v1.4C213.61,33.75,212.43,34.07,211.56,34.33Zm.62,9.13c-1.45,0-2.58-1-2.58-3.14A4.62,4.62,0,0,1,212.81,36a16.64,16.64,0,0,1,2-.73v7A4.52,4.52,0,0,1,212.18,43.46Z"/><path d="M232.7,39.21a3.89,3.89,0,0,0-3.87,3.91,3.88,3.88,0,0,0,7.75,0A3.9,3.9,0,0,0,232.7,39.21Z"/><rect x="35.23" y="56.1" width="200.69" height="6.28"/><path d="M229.64,29.17h6.28V0H0V56H6.28V6.28H229.64Z"/></g></g></g></svg>