<svg xmlns="http://www.w3.org/2000/svg" viewBox="0 0 580.53 111.6"><defs><style>.cls-1{fill:#fff;}</style></defs><g id="Layer_2" data-name="Layer 2"><g id="Layer_1-2" data-name="Layer 1"><path class="cls-1" d="M6.79,49.05c0-5.81-.1-8-.32-12.25L0,35.85V31.69l20.71-7,1.74,1,.69,8.22.5,1.59V68.67L23.32,70v7.59c0,6.72.11,14.41.32,23.79H6.47c.22-9.38.32-17,.32-23.73ZM30.32,96.37v5H.73v-5l10.12-2.11H21.13Zm.56-62.54c-5.59,0-10.34,5.87-13.79,9.41l-.95-1.75c6.05-11.36,13.08-16.83,22.4-16.83,11.52,0,20.7,9.33,20.7,26.91,0,17-10.68,27.4-22.59,27.4-9.5,0-15.06-5.4-19.75-16.32l1-1.92c4.36,5.83,7.45,9.3,12.7,9.3,6.28,0,10.78-5.7,10.78-18.2S37.1,33.83,30.88,33.83Z"/><path class="cls-1" d="M92.63,47.91c4.37-1.28,11.87-3.26,16.85-4.44v4.42c-5,1.26-10.69,2.81-13.79,4.23-4.79,2-7.9,5.58-7.9,10.55,0,5.3,2.78,7.75,6.35,7.75,2,0,3.68-.84,7.06-3.31l4.25-3.19,1.1,1.54-4.44,4.82C97,75.71,93.7,79,86,79c-8.18,0-13.87-4.82-13.87-13.52C72.16,57.93,76.33,52.64,92.63,47.91Zm8,20.8V42.24c0-9.37-1.82-12.14-8.57-12.14a36.81,36.81,0,0,0-9.89,1.53l7.28-4.12-.77,7.34c-.26,7-3.68,9.87-7.75,9.87-3.77,0-6.3-1.82-7.13-5.3.56-8.8,9.07-14.76,24.3-14.76,13.56,0,18.92,5.73,18.92,19.89V68.26c0,2.09.87,3.1,2.39,3.1,1.11,0,2-.57,3.21-2.33l2.8,1.87c-2.54,5.77-6.31,8-12.73,8C105.54,78.88,101.59,75.11,100.67,68.71Z"/><path class="cls-1" d="M156.83.58l1.71,1.07-.42,14.79V55.17q0,11.1.31,22.2H141q.31-11.1.32-22.2V10.86L134.7,9.8V5.34Zm7.32,71.87v4.92H135.24V72.45l10.11-2.12h8Z"/><path class="cls-1" d="M182.68,77.37c.21-4.76.31-15.65.31-22.2V50.12c0-5.81-.1-9.09-.31-13.32l-6.54-.95V31.69l22.15-7,1.81,1.13-.31,15.34v14c0,6.55.1,17.44.31,22.2Zm22.53-4.92v4.92H177.16V72.45l9.8-2.12h8Zm-23-64c0-4.94,4-8.42,9-8.42s9,3.48,9,8.42-4,8.41-9,8.41S182.25,13.32,182.25,8.42Z"/><path class="cls-1" d="M223.3,77.37c.21-4.76.32-15.65.32-22.2V49.05c0-5.81,0-8-.32-12.25l-6.48-.95V31.69l20.87-7,1.81,1.13,1,11.73V55.17c0,6.55.1,17.44.31,22.2Zm22.29-4.92v4.92H217.76V72.45l9.8-2.12h8.07Zm26.29-29.6V55.17c0,6.76.1,17.44.32,22.2H255c.21-4.76.31-15.44.31-22.2V45c0-7.39-1.46-10.11-6.13-10.11s-9.38,3.8-12.55,7.76h-3.9V35.82h6.61l-3.17,3c6.41-9.48,12.5-14.13,20.51-14.13C266.71,24.66,271.88,30.64,271.88,42.85Zm-4.61,27.48L277,72.45v4.92H249.71V72.45l9.34-2.12Zm35.87-27V55.17c0,6.76.11,17.44.32,22.2H286.28c.21-4.76.32-15.44.32-22.2V44.93c0-8-1.69-10-6-10-4.52,0-8.81,3-12.83,7.76H264V35.58h7.46l-4.33,3.21c7.48-10.95,13.4-14.13,20.6-14.13C298.4,24.66,303.14,30.78,303.14,43.36Zm-4.53,27,10,2.12v4.92H281.35V72.45l8.81-2.12Z"/><path class="cls-1" d="M370.21,47a22.67,22.67,0,0,1-.59,5.69H328.24V47.1h19.83c5.07,0,6.39-1.9,6.39-6.62,0-6.94-3.32-10.38-7.16-10.38-4.4,0-8.41,4.8-8.41,20.07,0,12.89,6.38,18.71,14.29,18.71A16.94,16.94,0,0,0,366,63.2l3.66,3.43C365.31,74.9,357.7,79,347.47,79c-15.39,0-26.34-10.06-26.34-27.12,0-17.63,13.59-27.19,27.23-27.19C362.3,24.66,370.21,34.2,370.21,47Z"/><path class="cls-1" d="M412.54,69.8c5.09,0,8.64-3.77,12-8.94l1.26,1.71c-5.24,11.31-11.66,16.4-21,16.4-12,0-21.11-9.46-21.11-26.69S395,24.66,406.9,24.66c9.15,0,13.57,5,18.45,14.42l-1.05,2.06c-4.15-5-7.16-7.54-11.48-7.54-6.41,0-11.3,6-11.3,18.47C401.52,63.69,406,69.8,412.54,69.8Zm28.56,2.65v4.92l-20.68,1.21-1.36-9.41V34.07l.62-1.15V10.86L412.26,9.8V5.34L434.62.58l1.71,1.07-.43,14.79V77.37l-7.18-7.68Z"/><path class="cls-1" d="M459.47,77.37c.21-4.76.31-15.65.31-22.2V50.12c0-5.81-.1-9.09-.31-13.32l-6.54-.95V31.69l22.15-7,1.81,1.13-.32,15.34v14c0,6.55.11,17.44.32,22.2ZM482,72.45v4.92H454V72.45l9.8-2.12h8Zm-23-64C459,3.48,463,0,468,0s9,3.48,9,8.42-4,8.41-9,8.41S459,13.32,459,8.42Z"/><path class="cls-1" d="M515.32,47.91c4.36-1.28,11.86-3.26,16.84-4.44v4.42c-5,1.26-10.69,2.81-13.78,4.23-4.79,2-7.91,5.58-7.91,10.55,0,5.3,2.79,7.75,6.36,7.75,2,0,3.68-.84,7.06-3.31l4.25-3.19,1.09,1.54-4.43,4.82c-5.13,5.43-8.42,8.69-16.09,8.69-8.17,0-13.86-4.82-13.86-13.52C494.85,57.93,499,52.64,515.32,47.91Zm8,20.8V42.24c0-9.37-1.82-12.14-8.57-12.14a36.76,36.76,0,0,0-9.89,1.53l7.28-4.12-.77,7.34c-.26,7-3.68,9.87-7.76,9.87-3.77,0-6.3-1.82-7.12-5.3.56-8.8,9.07-14.76,24.3-14.76,13.56,0,18.92,5.73,18.92,19.89V68.26c0,2.09.87,3.1,2.39,3.1,1.11,0,2-.57,3.2-2.33l2.8,1.87c-2.53,5.77-6.3,8-12.72,8C528.23,78.88,524.27,75.11,523.36,68.71Z"/><path class="cls-1" d="M561.45,69.59a9.54,9.54,0,1,1,19.08,0,9.54,9.54,0,0,1-19.08,0Z"/><rect class="cls-1" x="49.83" y="96.14" width="521.22" height="15.47"/></g></g></svg>