<svg id="Layer_1" data-name="Layer 1" xmlns="http://www.w3.org/2000/svg" xmlns:xlink="http://www.w3.org/1999/xlink" viewBox="0 0 580.5 111.6"><defs><style>.cls-1{fill:#262a33;}.cls-2{fill:#fbb040;}.cls-3{fill:url(#linear-gradient);}</style><linearGradient id="linear-gradient" x1="49.91" y1="8.15" x2="571.11" y2="8.15" gradientTransform="matrix(1, 0, 0, -1, -0.01, 112)" gradientUnits="userSpaceOnUse"><stop offset="0" stop-color="#ef4136"/><stop offset="1" stop-color="#fbb040"/></linearGradient></defs><path class="cls-1" d="M6.81,49c0-5.8-.1-8-.3-12.3L0,35.7V31.5l20.7-7,1.7,1,.7,8.2.5,1.6V68.5l-.3,1.3v7.6c0,6.7.1,14.4.3,23.8H6.41c.2-9.4.3-17,.3-23.7V49Zm23.6,47.4v5H.81v-5l10.1-2.1h10.3Zm.5-62.6c-5.6,0-10.3,5.9-13.8,9.4l-1-1.8c6.1-11.4,13.1-16.8,22.4-16.8,11.5,0,20.7,9.3,20.7,26.9,0,17-10.7,27.4-22.6,27.4-9.5,0-15.1-5.4-19.8-16.3l1-1.9c4.4,5.8,7.4,9.3,12.7,9.3,6.3,0,10.8-5.7,10.8-18.2S37.21,33.8,30.91,33.8Z" transform="translate(-0.01 0)"/><path class="cls-1" d="M92.71,47.9c4.4-1.3,11.9-3.3,16.8-4.4v4.4c-5,1.3-10.7,2.8-13.8,4.2-4.8,2-7.9,5.6-7.9,10.6,0,5.3,2.8,7.7,6.4,7.7,2,0,3.7-.8,7.1-3.3l4.3-3.2,1.1,1.5-4.4,4.8c-5.1,5.4-8.4,8.7-16.1,8.7-8.2,0-13.9-4.8-13.9-13.5C72.21,57.9,76.41,52.6,92.71,47.9Zm8,20.8V42.2c0-9.4-1.8-12.1-8.6-12.1a36.88,36.88,0,0,0-9.9,1.5l7.3-4.1-.8,7.3c-.3,7-3.7,9.9-7.8,9.9-3.8,0-6.3-1.8-7.1-5.3.6-8.8,9.1-14.8,24.3-14.8,13.6,0,18.9,5.7,18.9,19.9V68.2c0,2.1.9,3.1,2.4,3.1,1.1,0,2-.6,3.2-2.3l2.8,1.9c-2.5,5.8-6.3,8-12.7,8C105.61,78.9,101.61,75.1,100.71,68.7Z" transform="translate(-0.01 0)"/><path class="cls-1" d="M156.91.6l1.7,1.1-.4,14.8V55.2q0,11.1.3,22.2H141q.3-11.1.3-22.2V10.9l-6.6-1.1V5.3Zm7.3,71.8v4.9h-28.9V72.4l10.1-2.1h8Z" transform="translate(-0.01 0)"/><path class="cls-1" d="M182.71,77.4c.2-4.8.3-15.6.3-22.2v-5c0-5.8-.1-9.1-.3-13.3l-6.5-1V31.7l22.1-7,1.8,1.1-.3,15.3v14c0,6.6.1,17.4.3,22.2h-17.4Zm22.6-5v4.9h-28.1V72.4l9.8-2.1h8Zm-23-64c0-4.9,4-8.4,9-8.4s9,3.5,9,8.4-4,8.4-9,8.4S182.31,13.3,182.31,8.4Z" transform="translate(-0.01 0)"/><path class="cls-1" d="M223.41,77.4c.2-4.8.3-15.6.3-22.2V49.1c0-5.8,0-8-.3-12.3l-6.5-1V31.6l20.9-7,1.8,1.1,1,11.7V55c0,6.6.1,17.4.3,22.2h-17.5Zm22.2-5v4.9h-27.8V72.4l9.8-2.1h8.1Zm26.3-29.6V55.1c0,6.8.1,17.4.3,22.2H255c.2-4.8.3-15.4.3-22.2V44.9c0-7.4-1.5-10.1-6.1-10.1s-9.4,3.8-12.6,7.8h-3.9V35.8h6.6l-3.2,3c6.4-9.5,12.5-14.1,20.5-14.1C266.81,24.6,271.91,30.6,271.91,42.8Zm-4.6,27.5,9.7,2.1v4.9h-27.3V72.4l9.3-2.1Zm35.9-26.9V55.2c0,6.8.1,17.4.3,22.2h-17.2c.2-4.8.3-15.4.3-22.2V45c0-8-1.7-10-6-10-4.5,0-8.8,3-12.8,7.8H264V35.7h7.5l-4.3,3.2c7.5-11,13.4-14.1,20.6-14.1C298.51,24.6,303.21,30.8,303.21,43.4Zm-4.5,26.9,10,2.1v4.9h-27.2V72.4l8.8-2.1Z" transform="translate(-0.01 0)"/><path class="cls-1" d="M370.31,47a24.32,24.32,0,0,1-.6,5.7h-41.4V47.1h19.8c5.1,0,6.4-1.9,6.4-6.6,0-6.9-3.3-10.4-7.2-10.4-4.4,0-8.4,4.8-8.4,20.1,0,12.9,6.4,18.7,14.3,18.7A17,17,0,0,0,366,63.2l3.7,3.4c-4.3,8.3-11.9,12.3-22.2,12.3-15.4,0-26.3-10.1-26.3-27.1,0-17.6,13.6-27.2,27.2-27.2C362.41,24.6,370.31,34.2,370.31,47Z" transform="translate(-0.01 0)"/><path class="cls-1" d="M412.61,69.8c5.1,0,8.6-3.8,12-8.9l1.3,1.7c-5.2,11.3-11.7,16.4-21,16.4-12,0-21.1-9.5-21.1-26.7s11.3-27.6,23.3-27.6c9.2,0,13.6,5,18.5,14.4l-1.1,2.1c-4.1-5-7.2-7.5-11.5-7.5-6.4,0-11.3,6-11.3,18.5C401.61,63.7,406.11,69.8,412.61,69.8Zm28.5,2.6v4.9l-20.7,1.2L419,69.1V34l.6-1.1V10.8l-7.4-1.1V5.2L434.61.4l1.7,1.1-.4,14.8V77.2l-7.2-7.7Z" transform="translate(-0.01 0)"/><path class="cls-1" d="M459.51,77.4c.2-4.8.3-15.6.3-22.2v-5c0-5.8-.1-9.1-.3-13.3l-6.5-1V31.7l22.1-7,1.8,1.1-.3,15.3v14c0,6.6.1,17.4.3,22.2h-17.4Zm22.6-5v4.9H454V72.4l9.8-2.1h8Zm-23-64c0-4.9,4-8.4,9-8.4s9,3.5,9,8.4-4,8.4-9,8.4S459.11,13.3,459.11,8.4Z" transform="translate(-0.01 0)"/><path class="cls-1" d="M515.41,47.9c4.4-1.3,11.9-3.3,16.8-4.4v4.4c-5,1.3-10.7,2.8-13.8,4.2-4.8,2-7.9,5.6-7.9,10.6,0,5.3,2.8,7.7,6.4,7.7,2,0,3.7-.8,7.1-3.3l4.3-3.2,1.1,1.5L525,70.2c-5.1,5.4-8.4,8.7-16.1,8.7-8.2,0-13.9-4.8-13.9-13.5C494.91,57.9,499.11,52.6,515.41,47.9Zm8,20.8V42.2c0-9.4-1.8-12.1-8.6-12.1a36.88,36.88,0,0,0-9.9,1.5l7.3-4.1-.8,7.3c-.3,7-3.7,9.9-7.8,9.9-3.8,0-6.3-1.8-7.1-5.3.6-8.8,9.1-14.8,24.3-14.8,13.6,0,18.9,5.7,18.9,19.9V68.2c0,2.1.9,3.1,2.4,3.1,1.1,0,2-.6,3.2-2.3l2.8,1.9c-2.5,5.8-6.3,8-12.7,8C528.31,78.9,524.31,75.1,523.41,68.7Z" transform="translate(-0.01 0)"/><path class="cls-2" d="M561.51,69.6a9.5,9.5,0,1,1,19,0,9.5,9.5,0,0,1-19,0Z" transform="translate(-0.01 0)"/><rect class="cls-3" x="49.9" y="96.1" width="521.2" height="15.5"/></svg>